<?xml version="1.0" standalone="no"?>
<!DOCTYPE svg PUBLIC "-//W3C//DTD SVG 20010904//EN"
 "http://www.w3.org/TR/2001/REC-SVG-20010904/DTD/svg10.dtd">
<svg version="1.0" xmlns="http://www.w3.org/2000/svg"
 width="264.000000pt" height="230.000000pt" viewBox="0 0 264.000000 230.000000"
 preserveAspectRatio="xMidYMid meet">

<g transform="translate(0.000000,230.000000) scale(0.100000,-0.100000)"
fill="#000000" stroke="none">
<path d="M1086 1976 c-105 -39 -163 -163 -121 -261 21 -51 295 -325 324 -325
31 0 305 273 326 324 57 137 -70 294 -220 272 -22 -4 -55 -15 -73 -26 -31 -19
-32 -19 -66 1 -45 26 -121 33 -170 15z m411 -95 c22 -11 53 -68 53 -96 0 -33
-31 -72 -144 -185 l-116 -115 -125 125 c-138 138 -150 160 -120 224 21 43 59
66 110 66 41 0 90 -22 98 -45 9 -23 62 -19 78 5 29 44 107 53 166 21z"/>
<path d="M810 1415 c-205 -46 -377 -221 -419 -423 -25 -120 -6 -257 51 -366
45 -85 156 -194 238 -234 88 -43 197 -65 285 -58 105 8 225 54 293 111 l31 26
38 -30 c51 -41 156 -87 228 -100 177 -33 350 22 481 153 140 139 193 325 149
515 -23 95 -70 177 -150 257 -172 174 -417 210 -642 96 -22 -12 -54 -33 -72
-47 l-31 -27 -31 27 c-108 90 -302 133 -449 100z m1045 -119 c350 -172 348
-660 -3 -834 -68 -33 -84 -37 -172 -40 -131 -6 -224 22 -313 92 -18 14 -17 17
17 65 67 98 81 149 81 301 0 151 -12 196 -80 299 -20 29 -34 55 -33 56 150
118 340 141 503 61z m-794 28 c45 -13 169 -78 169 -89 0 -2 -15 -26 -34 -54
-67 -99 -81 -150 -81 -301 0 -152 14 -203 81 -301 34 -48 35 -51 17 -65 -92
-71 -183 -98 -312 -92 -82 3 -106 8 -164 36 -138 64 -241 197 -267 342 -41
226 101 455 325 526 57 18 201 17 266 -2z m282 -247 c32 -64 40 -92 44 -157 4
-47 1 -103 -7 -138 -14 -70 -69 -177 -90 -177 -9 0 -32 33 -55 80 -40 79 -40
80 -40 195 0 105 2 120 28 175 37 80 56 107 70 103 7 -2 29 -39 50 -81z"/>
</g>
</svg>
